# xmcd CD database file
#
# Track frame offsets:
#	150
#	13309
#	26597
#	41042
#	55420
#	70046
#	82858
#	97137
#	111225
#	126020
#	140640
#	152468
#	166998
#	180009
#
# Disc length: 2583 seconds
#
# Revision: 2
# Processed by: cddbd v1.5.2PL0 Copyright (c) Steve Scherf et al.
# Submitted via: CDex 1.51
#
DISCID=b20a150e
DTITLE=Billie Holiday - The Collection
DYEAR=2008
DGENRE=Blues
TTITLE0=That old devil called love
TTITLE1=I love you Porgy
TTITLE2=Deep song
TTITLE3=What is this thing called love
TTITLE4=Solitude
TTITLE5=Them there eyes
TTITLE6=God bless the child
TTITLE7=Good morning heartache
TTITLE8=Lover Man (Oh where can you be)
TTITLE9=I'll look around
TTITLE10=My man (Mon homme)
TTITLE11=Guilty
TTITLE12=This is heaven to me
TTITLE13=The blues are brewin'
EXTD=YEAR: 2008
EXTT0=
EXTT1=
EXTT2=
EXTT3=
EXTT4=
EXTT5=
EXTT6=
EXTT7=
EXTT8=
EXTT9=
EXTT10=
EXTT11=
EXTT12=
EXTT13=
PLAYORDER=
